<svg width="36" height="35" viewBox="0 0 36 35" fill="none" xmlns="http://www.w3.org/2000/svg">
<path d="M17.9353 2.17334C9.53384 2.17334 2.72168 8.9855 2.72168 17.3869C2.72168 25.7884 9.53384 32.6005 17.9353 32.6005C26.3367 32.6005 33.1489 25.7884 33.1489 17.3869C33.1489 8.9855 26.3367 2.17334 17.9353 2.17334ZM19.1748 21.1496C17.684 23.2482 14.6888 23.8595 12.3524 22.9596C10.0093 22.0665 8.34528 19.5909 8.54563 17.0677C8.59657 13.9809 11.4389 11.2743 14.5258 11.3796C16.0064 11.3117 17.3987 11.9535 18.5329 12.8602C18.0473 13.4103 17.5481 13.9401 17.0116 14.4325C15.6498 13.4918 13.7108 13.2236 12.349 14.3103C10.3998 15.6584 10.3115 18.8404 12.186 20.2904C14.0096 21.9442 17.4565 21.1224 17.9624 18.5891C16.8214 18.5721 15.6736 18.5891 14.5326 18.5517C14.5292 17.8691 14.5258 17.19 14.5292 16.5074C16.4377 16.5006 18.3496 16.4972 20.2615 16.5142C20.3735 18.1204 20.1596 19.8252 19.1748 21.1496ZM27.4098 18.2189C26.8393 18.2257 26.2688 18.2291 25.6983 18.2325C25.6915 18.803 25.6881 19.3735 25.6881 19.944H23.98C23.9732 19.3735 23.9732 18.8064 23.9698 18.2359C23.3993 18.2291 22.8288 18.2257 22.2582 18.2189V16.5176C22.8288 16.5108 23.3993 16.5074 23.9698 16.5074C23.9732 15.9369 23.98 15.3664 23.9834 14.7959H25.6881L25.6983 16.5074C26.2688 16.5142 26.8393 16.5142 27.4098 16.5176V18.2189Z" fill="white"/>
</svg>
